<svg xmlns="http://www.w3.org/2000/svg" width="920" height="520" viewBox="0 0 920 520">
  <rect width="920" height="520" rx="18" fill="#0b1020" stroke="#4c1d95" stroke-opacity="0.5"/>
  <text x="460" y="34" text-anchor="middle" fill="#e9d5ff" font-family="Segoe UI, Arial" font-size="20" font-weight="700">Programming Languages &amp; Technologies</text>

  <!-- helper: row y positions -->
  <!-- row1 y=58 -->
  <g font-family="Segoe UI, Arial" font-size="12" font-weight="600">
    <rect x="20" y="52" width="70" height="28" rx="8" fill="#00599C"/><text x="55" y="70" text-anchor="middle" fill="#fff">C</text>
    <rect x="98" y="52" width="70" height="28" rx="8" fill="#00599C"/><text x="133" y="70" text-anchor="middle" fill="#fff">C++</text>
    <rect x="176" y="52" width="70" height="28" rx="8" fill="#512BD4"/><text x="211" y="70" text-anchor="middle" fill="#fff">C#</text>
    <rect x="254" y="52" width="70" height="28" rx="8" fill="#000000"/><text x="289" y="70" text-anchor="middle" fill="#fff">Rust</text>
    <rect x="332" y="52" width="70" height="28" rx="8" fill="#00ADD8"/><text x="367" y="70" text-anchor="middle" fill="#fff">Go</text>
    <rect x="410" y="52" width="70" height="28" rx="8" fill="#512BD4"/><text x="445" y="70" text-anchor="middle" fill="#fff">.NET</text>
    <rect x="488" y="52" width="90" height="28" rx="8" fill="#512BD4"/><text x="533" y="70" text-anchor="middle" fill="#fff">ASP.NET</text>
    <rect x="586" y="52" width="70" height="28" rx="8" fill="#378BBA"/><text x="621" y="70" text-anchor="middle" fill="#fff">F#</text>
    <rect x="664" y="52" width="70" height="28" rx="8" fill="#F7A41D"/><text x="699" y="70" text-anchor="middle" fill="#000">Zig</text>
    <rect x="742" y="52" width="90" height="28" rx="8" fill="#374151"/><text x="787" y="70" text-anchor="middle" fill="#fff">Assembly</text>

    <rect x="20" y="92" width="86" height="28" rx="8" fill="#3776AB"/><text x="63" y="110" text-anchor="middle" fill="#fff">Python</text>
    <rect x="114" y="92" width="70" height="28" rx="8" fill="#777BB4"/><text x="149" y="110" text-anchor="middle" fill="#fff">PHP</text>
    <rect x="192" y="92" width="70" height="28" rx="8" fill="#ED8B00"/><text x="227" y="110" text-anchor="middle" fill="#fff">Java</text>
    <rect x="270" y="92" width="80" height="28" rx="8" fill="#7F52FF"/><text x="310" y="110" text-anchor="middle" fill="#fff">Kotlin</text>
    <rect x="358" y="92" width="70" height="28" rx="8" fill="#CC342D"/><text x="393" y="110" text-anchor="middle" fill="#fff">Ruby</text>
    <rect x="436" y="92" width="90" height="28" rx="8" fill="#339933"/><text x="481" y="110" text-anchor="middle" fill="#fff">Node.js</text>
    <rect x="534" y="92" width="80" height="28" rx="8" fill="#009688"/><text x="574" y="110" text-anchor="middle" fill="#fff">FastAPI</text>
    <rect x="622" y="92" width="80" height="28" rx="8" fill="#FF2D20"/><text x="662" y="110" text-anchor="middle" fill="#fff">Laravel</text>
    <rect x="710" y="92" width="80" height="28" rx="8" fill="#092E20"/><text x="750" y="110" text-anchor="middle" fill="#fff">Django</text>
    <rect x="798" y="92" width="102" height="28" rx="8" fill="#DC322F"/><text x="849" y="110" text-anchor="middle" fill="#fff">Spring</text>

    <rect x="20" y="132" width="100" height="28" rx="8" fill="#F7DF1E"/><text x="70" y="150" text-anchor="middle" fill="#000">JavaScript</text>
    <rect x="128" y="132" width="100" height="28" rx="8" fill="#3178C6"/><text x="178" y="150" text-anchor="middle" fill="#fff">TypeScript</text>
    <rect x="236" y="132" width="70" height="28" rx="8" fill="#61DAFB"/><text x="271" y="150" text-anchor="middle" fill="#000">React</text>
    <rect x="314" y="132" width="80" height="28" rx="8" fill="#000000"/><text x="354" y="150" text-anchor="middle" fill="#fff">Next.js</text>
    <rect x="402" y="132" width="70" height="28" rx="8" fill="#4FC08D"/><text x="437" y="150" text-anchor="middle" fill="#fff">Vue</text>
    <rect x="480" y="132" width="80" height="28" rx="8" fill="#DD0031"/><text x="520" y="150" text-anchor="middle" fill="#fff">Angular</text>
    <rect x="568" y="132" width="70" height="28" rx="8" fill="#FA7343"/><text x="603" y="150" text-anchor="middle" fill="#fff">Swift</text>
    <rect x="646" y="132" width="70" height="28" rx="8" fill="#0175C2"/><text x="681" y="150" text-anchor="middle" fill="#fff">Dart</text>
    <rect x="724" y="132" width="80" height="28" rx="8" fill="#02569B"/><text x="764" y="150" text-anchor="middle" fill="#fff">Flutter</text>
    <rect x="812" y="132" width="88" height="28" rx="8" fill="#06B6D4"/><text x="856" y="150" text-anchor="middle" fill="#fff">Tailwind</text>

    <rect x="20" y="172" width="50" height="28" rx="8" fill="#276DC3"/><text x="45" y="190" text-anchor="middle" fill="#fff">R</text>
    <rect x="78" y="172" width="60" height="28" rx="8" fill="#2C2D72"/><text x="108" y="190" text-anchor="middle" fill="#fff">Lua</text>
    <rect x="146" y="172" width="60" height="28" rx="8" fill="#39457E"/><text x="176" y="190" text-anchor="middle" fill="#fff">Perl</text>
    <rect x="214" y="172" width="60" height="28" rx="8" fill="#DC322F"/><text x="244" y="190" text-anchor="middle" fill="#fff">Scala</text>
    <rect x="282" y="172" width="80" height="28" rx="8" fill="#5D4F85"/><text x="322" y="190" text-anchor="middle" fill="#fff">Haskell</text>
    <rect x="370" y="172" width="70" height="28" rx="8" fill="#4B275F"/><text x="405" y="190" text-anchor="middle" fill="#fff">Elixir</text>
    <rect x="448" y="172" width="70" height="28" rx="8" fill="#A90533"/><text x="483" y="190" text-anchor="middle" fill="#fff">Erlang</text>
    <rect x="526" y="172" width="70" height="28" rx="8" fill="#9558B2"/><text x="561" y="190" text-anchor="middle" fill="#fff">Julia</text>
    <rect x="604" y="172" width="80" height="28" rx="8" fill="#E16737"/><text x="644" y="190" text-anchor="middle" fill="#fff">MATLAB</text>
    <rect x="692" y="172" width="70" height="28" rx="8" fill="#4EAA25"/><text x="727" y="190" text-anchor="middle" fill="#fff">Bash</text>
    <rect x="770" y="172" width="90" height="28" rx="8" fill="#5391FE"/><text x="815" y="190" text-anchor="middle" fill="#fff">PowerShell</text>

    <rect x="20" y="212" width="100" height="28" rx="8" fill="#4169E1"/><text x="70" y="230" text-anchor="middle" fill="#fff">PostgreSQL</text>
    <rect x="128" y="212" width="70" height="28" rx="8" fill="#4479A1"/><text x="163" y="230" text-anchor="middle" fill="#fff">MySQL</text>
    <rect x="206" y="212" width="90" height="28" rx="8" fill="#47A248"/><text x="251" y="230" text-anchor="middle" fill="#fff">MongoDB</text>
    <rect x="304" y="212" width="70" height="28" rx="8" fill="#DC382D"/><text x="339" y="230" text-anchor="middle" fill="#fff">Redis</text>
    <rect x="382" y="212" width="80" height="28" rx="8" fill="#2496ED"/><text x="422" y="230" text-anchor="middle" fill="#fff">Docker</text>
    <rect x="470" y="212" width="70" height="28" rx="8" fill="#009639"/><text x="505" y="230" text-anchor="middle" fill="#fff">Nginx</text>
    <rect x="548" y="212" width="70" height="28" rx="8" fill="#FCC624"/><text x="583" y="230" text-anchor="middle" fill="#000">Linux</text>
    <rect x="626" y="212" width="70" height="28" rx="8" fill="#F05032"/><text x="661" y="230" text-anchor="middle" fill="#fff">Git</text>
    <rect x="704" y="212" width="90" height="28" rx="8" fill="#26A5E4"/><text x="749" y="230" text-anchor="middle" fill="#fff">Telegram</text>
    <rect x="802" y="212" width="98" height="28" rx="8" fill="#6366f1"/><text x="851" y="230" text-anchor="middle" fill="#fff">Mini App</text>
  </g>

  <text x="460" y="280" text-anchor="middle" fill="#94a3b8" font-family="Segoe UI, Arial" font-size="13">+ HTML, CSS, SASS, GraphQL, REST, WebSocket, systemd, VPS, SSL, CI/CD</text>

  <rect x="30" y="300" width="860" height="200" rx="14" fill="#111827" stroke="#312e81"/>
  <text x="460" y="330" text-anchor="middle" fill="#f8fafc" font-family="Segoe UI, Arial" font-size="16" font-weight="700">What I deliver</text>
  <text x="80" y="365" fill="#c4b5fd" font-family="Segoe UI, Arial" font-size="13">- Full architecture and clean code</text>
  <text x="80" y="390" fill="#c4b5fd" font-family="Segoe UI, Arial" font-size="13">- Backend APIs, bots, mini apps, admin panels</text>
  <text x="80" y="415" fill="#c4b5fd" font-family="Segoe UI, Arial" font-size="13">- Payments, automation, database design</text>
  <text x="480" y="365" fill="#c4b5fd" font-family="Segoe UI, Arial" font-size="13">- Modern frontend with premium UX</text>
  <text x="480" y="390" fill="#c4b5fd" font-family="Segoe UI, Arial" font-size="13">- Docker, Nginx, VPS deploy, monitoring</text>
  <text x="480" y="415" fill="#c4b5fd" font-family="Segoe UI, Arial" font-size="13">- Security: auth, HTTPS, secrets hardening</text>
  <text x="460" y="470" text-anchor="middle" fill="#64748b" font-family="Segoe UI, Arial" font-size="12">End-to-end product builder | Tehran, Iran</text>
</svg>
